<svg width="78" height="79" viewBox="0 0 78 79" fill="none" xmlns="http://www.w3.org/2000/svg">
<path d="M39 58.2336C49.5452 58.2336 58.0938 49.6851 58.0938 39.1399C58.0938 28.5947 49.5452 20.0461 39 20.0461C28.4548 20.0461 19.9062 28.5947 19.9062 39.1399C19.9062 49.6851 28.4548 58.2336 39 58.2336Z" stroke="#1B2B38" stroke-width="0.8125"/>
<path d="M17.187 26.5461C18.9066 23.5676 21.218 20.9728 23.9788 18.9217C26.7395 16.8706 29.8911 15.4066 33.2393 14.62C36.5874 13.8334 40.0612 13.7408 43.4465 14.348C46.8318 14.9552 50.0568 16.2492 52.9229 18.1503C55.789 20.0515 58.2354 22.5195 60.1113 25.4021L57.3784 27.1805C55.7454 24.671 53.6157 22.5225 51.1206 20.8674C48.6255 19.2124 45.8179 18.0858 42.8709 17.5573C39.9238 17.0288 36.8998 17.1093 33.985 17.7941C31.0702 18.4789 28.3267 19.7533 25.9233 21.5389C23.5199 23.3246 21.5077 25.5834 20.0107 28.1764L17.187 26.5461Z" fill="#111B24" stroke="white" stroke-width="0.8125" stroke-linejoin="bevel"/>
<path fill-rule="evenodd" clip-rule="evenodd" d="M39.4063 20.8586L46.3125 15.5774L39.4063 10.2961V13.9556C36.8868 13.915 34.3701 14.2526 31.9414 14.9617C28.64 15.9255 25.5708 17.5553 22.9232 19.7505C20.2757 21.9458 18.1058 24.66 16.5471 27.7259L19.4537 29.2034C20.8105 26.5344 22.6995 24.1715 25.0044 22.2604C27.3093 20.3494 29.9811 18.9306 32.8551 18.0915C34.9864 17.4694 37.1954 17.1757 39.4063 17.2167V20.8586Z" fill="#111B24"/>
<path d="M46.3125 15.5774L46.5593 15.9001V15.2547L46.3125 15.5774ZM39.4062 20.8586H39L39.653 21.1814L39.4062 20.8586ZM39.4062 10.2961L39.653 9.97342L39 10.2961H39.4062ZM39.4062 13.9556L39.3997 14.3619L39.8125 13.9556H39.4062ZM16.5471 27.7259L16.185 27.5418L16.363 28.088L16.5471 27.7259ZM19.4537 29.2034L19.2696 29.5656L19.8158 29.3875L19.4537 29.2034ZM39.4062 17.2167H39.8125L39.4138 16.8105L39.4062 17.2167ZM46.0657 15.2547L39.1595 20.5359L39.653 21.1814L46.5593 15.9001L46.0657 15.2547ZM39.1595 10.6189L46.0657 15.9001L46.5593 15.2547L39.653 9.97342L39.1595 10.6189ZM39.8125 13.9556V10.2961H39V13.9556H39.8125ZM32.0553 15.3516C34.4448 14.6541 36.9208 14.3219 39.3997 14.3619L39.4128 13.5495C36.8526 13.5082 34.2955 13.8512 31.8276 14.5717L32.0553 15.3516ZM23.1826 20.0632C25.7874 17.9034 28.807 16.2999 32.0553 15.3516L31.8276 14.5717C28.4728 15.5511 25.3542 17.2071 22.664 19.4377L23.1826 20.0632ZM16.9093 27.91C18.4427 24.8935 20.5777 22.2231 23.1826 20.0632L22.664 19.4377C19.9737 21.6685 17.7687 24.4264 16.185 27.5418L16.9093 27.91ZM19.6377 28.8413L16.7312 27.3638L16.363 28.088L19.2696 29.5656L19.6377 28.8413ZM24.7451 21.9477C22.3975 23.8942 20.4735 26.3008 19.0916 29.0193L19.8158 29.3875C21.1475 26.768 23.0015 24.4488 25.2637 22.5732L24.7451 21.9477ZM32.7413 17.7015C29.814 18.5562 27.0926 20.0012 24.7451 21.9477L25.2637 22.5732C27.5258 20.6975 30.1481 19.305 32.969 18.4815L32.7413 17.7015ZM39.4138 16.8105C37.1619 16.7688 34.912 17.0678 32.7413 17.7015L32.969 18.4815C35.0608 17.8708 37.2287 17.5826 39.3987 17.6229L39.4138 16.8105ZM39.8125 20.8586V17.2167H39V20.8586H39.8125Z" fill="white"/>
<path d="M60.813 26.5462C62.5327 29.5248 63.6241 32.8239 64.02 36.2403C64.416 39.6568 64.108 43.1181 63.1152 46.411C62.1224 49.7039 60.4657 52.7585 58.2471 55.3867C56.0287 58.0149 53.2955 60.1609 50.216 61.6924C47.1365 63.2239 43.776 64.1086 40.3416 64.2917L40.168 61.0359C43.1578 60.8764 46.0833 60.1063 48.7641 58.773C51.445 57.4397 53.8244 55.5716 55.7556 53.2836C57.6869 50.9956 59.1292 48.3364 59.9935 45.4698C60.8578 42.6032 61.1259 39.5899 60.7813 36.6157C60.4365 33.6415 59.4864 30.7694 57.9893 28.1765L60.813 26.5462Z" fill="#111B24" stroke="white" stroke-width="0.8125" stroke-linejoin="bevel"/>
<path fill-rule="evenodd" clip-rule="evenodd" d="M54.6289 48.6324L55.7495 57.254L63.7763 53.9137L60.6071 52.0839C61.902 49.9223 62.8679 47.574 63.4683 45.1162C64.2843 41.7751 64.4074 38.3023 63.8301 34.9118C63.2527 31.5213 61.9871 28.285 60.1113 25.4022L57.3784 27.1806C59.0115 29.6901 60.1132 32.5075 60.6158 35.4591C61.1185 38.4108 61.0113 41.434 60.3008 44.3426C59.7741 46.4994 58.9239 48.5592 57.783 50.4534L54.6289 48.6324Z" fill="#111B24"/>
<path d="M55.7495 57.254L55.3466 57.3064L55.9055 57.6291L55.7495 57.254ZM54.6289 48.6324L54.8321 48.2806L54.226 48.6848L54.6289 48.6324ZM63.7763 53.9137L63.9324 54.2887L63.9794 53.5619L63.7763 53.9137ZM60.6071 52.0839L60.2586 51.8751L60.4039 52.4357L60.6071 52.0839ZM60.1113 25.4022L60.4518 25.1807L59.8897 25.0617L60.1113 25.4022ZM57.3784 27.1806L57.1569 26.8401L57.0379 27.4022L57.3784 27.1806ZM57.783 50.4534L57.5799 50.8052L58.131 50.663L57.783 50.4534ZM56.1524 57.2017L55.0318 48.5801L54.226 48.6848L55.3466 57.3064L56.1524 57.2017ZM63.6202 53.5386L55.5934 56.879L55.9055 57.6291L63.9324 54.2887L63.6202 53.5386ZM60.4039 52.4357L63.5732 54.2655L63.9794 53.5619L60.8102 51.7321L60.4039 52.4357ZM63.0736 45.0198C62.483 47.438 61.5326 49.7484 60.2586 51.8751L60.9555 52.2926C62.2714 50.0962 63.2529 47.7101 63.8629 45.2126L63.0736 45.0198ZM63.4296 34.98C63.9976 38.3158 63.8765 41.7326 63.0736 45.0198L63.8629 45.2126C64.6921 41.8176 64.8172 38.2888 64.2306 34.8436L63.4296 34.98ZM59.7708 25.6238C61.6164 28.4601 62.8616 31.6442 63.4296 34.98L64.2306 34.8436C63.6439 31.3984 62.3579 28.1099 60.4518 25.1807L59.7708 25.6238ZM57.6 27.5211L60.3328 25.7427L59.8897 25.0617L57.1569 26.8401L57.6 27.5211ZM61.0163 35.3909C60.5044 32.3846 59.3822 29.515 57.7189 26.959L57.0379 27.4022C58.6407 29.8652 59.7221 32.6304 60.2154 35.5274L61.0163 35.3909ZM60.6955 44.4389C61.4191 41.4765 61.5283 38.3972 61.0163 35.3909L60.2154 35.5274C60.7086 38.4242 60.6034 41.3915 59.9062 44.2462L60.6955 44.4389ZM58.131 50.663C59.293 48.7337 60.159 46.6357 60.6955 44.4389L59.9062 44.2462C59.3892 46.363 58.5548 48.3847 57.435 50.2438L58.131 50.663ZM54.4258 48.9842L57.5799 50.8052L57.9861 50.1016L54.8321 48.2806L54.4258 48.9842Z" fill="white"/>
<path d="M39 64.3275C35.5607 64.3275 32.1579 63.6232 29.0011 62.2579C25.8445 60.8925 23.0008 58.8952 20.6455 56.3889C18.2903 53.8826 16.4732 50.9206 15.3064 47.6852C14.1395 44.4499 13.6476 41.0099 13.8611 37.5772C14.0744 34.1445 14.9886 30.7919 16.5472 27.726L19.4537 29.2036C18.0969 31.8726 17.3011 34.7911 17.1153 37.7795C16.9295 40.7678 17.3577 43.7625 18.3735 46.5791C19.3893 49.3956 20.9711 51.9742 23.0215 54.156C25.0719 56.3378 27.5474 58.0767 30.2955 59.2653C33.0436 60.4539 36.0059 61.067 39 61.067V64.3275Z" fill="#111B24" stroke="white" stroke-width="0.8125" stroke-linejoin="bevel"/>
<path fill-rule="evenodd" clip-rule="evenodd" d="M22.9649 47.9288L14.9381 44.5884L13.8175 53.21L16.9867 51.3803C18.2113 53.5826 19.762 55.5932 21.5903 57.342C24.0758 59.7193 27.0218 61.5623 30.2467 62.7576C33.4717 63.9528 36.9072 64.4749 40.3416 64.2917L40.168 61.0359C37.1781 61.1954 34.1873 60.7409 31.3798 59.7003C28.5724 58.6598 26.0077 57.0553 23.844 54.9858C22.2396 53.4512 20.8808 51.685 19.8109 49.7498L22.9649 47.9288Z" fill="#111B24"/>
<path d="M14.9381 44.5884L15.0941 44.2134L14.5352 44.5361L14.9381 44.5884ZM22.9649 47.9288L23.168 48.2806L23.121 47.5537L22.9649 47.9288ZM13.8175 53.21L13.4146 53.1577L14.0206 53.5618L13.8175 53.21ZM16.9867 51.3803L17.3418 51.1828L16.7836 51.0285L16.9867 51.3803ZM40.3416 64.2917L40.3633 64.6974L40.7473 64.2701L40.3416 64.2917ZM40.168 61.0359L40.5737 61.0143L40.1464 60.6302L40.168 61.0359ZM19.8109 49.7498L19.6077 49.3979L19.4553 49.9464L19.8109 49.7498ZM14.782 44.9635L22.8088 48.3039L23.121 47.5537L15.0941 44.2134L14.782 44.9635ZM14.2204 53.2624L15.3409 44.6408L14.5352 44.5361L13.4146 53.1577L14.2204 53.2624ZM16.7836 51.0285L13.6143 52.8582L14.0206 53.5618L17.1898 51.7321L16.7836 51.0285ZM21.8711 57.0484C20.0722 55.3278 18.5466 53.3496 17.3418 51.1828L16.6317 51.5777C17.876 53.8155 19.4517 55.8586 21.3095 57.6356L21.8711 57.0484ZM30.3879 62.3767C27.215 61.2006 24.3165 59.3874 21.8711 57.0484L21.3095 57.6356C23.8351 60.0512 26.8286 61.924 30.1056 63.1385L30.3879 62.3767ZM40.32 63.8861C36.941 64.0663 33.5608 63.5526 30.3879 62.3767L30.1056 63.1385C33.3825 64.3531 36.8734 64.8835 40.3633 64.6974L40.32 63.8861ZM39.7623 61.0575L39.9359 64.3134L40.7473 64.2701L40.5737 61.0143L39.7623 61.0575ZM31.2387 60.0812C34.0981 61.141 37.1443 61.604 40.1896 61.4415L40.1464 60.6302C37.2119 60.7868 34.2765 60.3406 31.521 59.3194L31.2387 60.0812ZM23.5632 55.2794C25.7671 57.3873 28.3792 59.0214 31.2387 60.0812L31.521 59.3194C28.7656 58.2982 26.2485 56.7234 24.1248 54.6922L23.5632 55.2794ZM19.4553 49.9464C20.5451 51.9174 21.9291 53.7163 23.5632 55.2794L24.1248 54.6922C22.5501 53.1861 21.2165 51.4526 20.1663 49.5532L19.4553 49.9464ZM22.7618 47.577L19.6077 49.3979L20.014 50.1016L23.168 48.2806L22.7618 47.577Z" fill="white"/>
<path d="M39 57.0149C35.4101 57.0149 32.5 59.925 32.5 63.5149C32.5 67.1047 35.4101 70.0149 39 70.0149C42.5899 70.0149 45.5 67.1047 45.5 63.5149C45.5 59.925 42.5899 57.0149 39 57.0149Z" fill="#111B24"/>
<path d="M39 57.0149C35.4101 57.0149 32.5 59.925 32.5 63.5149C32.5 67.1047 35.4101 70.0149 39 70.0149C42.5899 70.0149 45.5 67.1047 45.5 63.5149C45.5 59.925 42.5899 57.0149 39 57.0149Z" fill="#00EAC7" fill-opacity="0.06"/>
<path d="M39 57.0149C35.4101 57.0149 32.5 59.925 32.5 63.5149C32.5 67.1047 35.4101 70.0149 39 70.0149C42.5899 70.0149 45.5 67.1047 45.5 63.5149C45.5 59.925 42.5899 57.0149 39 57.0149Z" stroke="#00EAC7" stroke-width="1.625" stroke-linejoin="bevel"/>
<path d="M17.875 19.6399C14.2851 19.6399 11.375 22.55 11.375 26.1399C11.375 29.7297 14.2851 32.6399 17.875 32.6399C21.4649 32.6399 24.375 29.7297 24.375 26.1399C24.375 22.55 21.4649 19.6399 17.875 19.6399Z" fill="#111B24"/>
<path d="M17.875 19.6399C14.2851 19.6399 11.375 22.55 11.375 26.1399C11.375 29.7297 14.2851 32.6399 17.875 32.6399C21.4649 32.6399 24.375 29.7297 24.375 26.1399C24.375 22.55 21.4649 19.6399 17.875 19.6399Z" fill="#00EAC7" fill-opacity="0.06"/>
<path d="M17.875 19.6399C14.2851 19.6399 11.375 22.55 11.375 26.1399C11.375 29.7297 14.2851 32.6399 17.875 32.6399C21.4649 32.6399 24.375 29.7297 24.375 26.1399C24.375 22.55 21.4649 19.6399 17.875 19.6399Z" stroke="#00EAC7" stroke-width="1.625" stroke-linejoin="bevel"/>
<path d="M60.1249 19.6399C56.5351 19.6399 53.6249 22.55 53.6249 26.1399C53.6249 29.7297 56.5351 32.6399 60.1249 32.6399C63.7148 32.6399 66.6249 29.7297 66.6249 26.1399C66.6249 22.55 63.7148 19.6399 60.1249 19.6399Z" fill="#111B24"/>
<path d="M60.1249 19.6399C56.5351 19.6399 53.6249 22.55 53.6249 26.1399C53.6249 29.7297 56.5351 32.6399 60.1249 32.6399C63.7148 32.6399 66.6249 29.7297 66.6249 26.1399C66.6249 22.55 63.7148 19.6399 60.1249 19.6399Z" fill="#00EAC7" fill-opacity="0.06"/>
<path d="M60.1249 19.6399C56.5351 19.6399 53.6249 22.55 53.6249 26.1399C53.6249 29.7297 56.5351 32.6399 60.1249 32.6399C63.7148 32.6399 66.6249 29.7297 66.6249 26.1399C66.6249 22.55 63.7148 19.6399 60.1249 19.6399Z" stroke="#00EAC7" stroke-width="1.625" stroke-linejoin="bevel"/>
<path d="M60.5312 64.7336V67.9836H65.4062V64.7336" stroke="#1B2B38" stroke-width="0.8125" stroke-linecap="square"/>
<path d="M62.9688 65.5461V62.2961H67.8438V65.5461" stroke="#1B2B38" stroke-width="0.8125" stroke-linecap="square"/>
<path d="M17.4688 10.2961H10.1562" stroke="#1B2B38" stroke-width="0.8125" stroke-linecap="square"/>
<path d="M17.4688 12.7336H10.1562" stroke="#1B2B38" stroke-width="0.8125" stroke-linecap="square"/>
</svg>
