<svg width="78" height="79" viewBox="0 0 78 79" fill="none" xmlns="http://www.w3.org/2000/svg">
<path d="M39 65.5461C53.5838 65.5461 65.4062 53.7237 65.4062 39.1399C65.4062 24.5561 53.5838 12.7336 39 12.7336C24.4162 12.7336 12.5938 24.5561 12.5938 39.1399C12.5938 53.7237 24.4162 65.5461 39 65.5461Z" stroke="#415566" stroke-width="0.8125" stroke-dasharray="1.62 1.62"/>
<path d="M39 58.2336C49.5452 58.2336 58.0938 49.6851 58.0938 39.1399C58.0938 28.5947 49.5452 20.0461 39 20.0461C28.4548 20.0461 19.9062 28.5947 19.9062 39.1399C19.9062 49.6851 28.4548 58.2336 39 58.2336Z" stroke="#1B2B38" stroke-width="0.8125"/>
<path d="M17.0625 12.3274H49.5625V57.8274H17.0625V12.3274Z" fill="#111B24"/>
<path d="M17.0625 12.3274H49.5625V57.8274H17.0625V12.3274Z" fill="#00EAC7" fill-opacity="0.06"/>
<path d="M17.0625 12.3274H49.5625V57.8274H17.0625V12.3274Z" stroke="#00EAC7" stroke-width="1.625" stroke-linejoin="bevel"/>
<path d="M24.375 49.2961H34.125" stroke="#00EAC7" stroke-width="0.8125" stroke-linejoin="bevel"/>
<path d="M21.125 49.2961H22.75" stroke="#00EAC7" stroke-width="0.8125" stroke-linejoin="bevel"/>
<path d="M24.375 46.0461H41.4375" stroke="#00EAC7" stroke-width="0.8125" stroke-linejoin="bevel"/>
<path d="M21.125 46.0461H22.75" stroke="#00EAC7" stroke-width="0.8125" stroke-linejoin="bevel"/>
<path d="M24.375 42.7961H43.875" stroke="#00EAC7" stroke-width="0.8125" stroke-linejoin="bevel"/>
<path d="M21.125 42.7961H22.75" stroke="#00EAC7" stroke-width="0.8125" stroke-linejoin="bevel"/>
<path d="M24.375 39.5461H41.4375" stroke="#00EAC7" stroke-width="0.8125" stroke-linejoin="bevel"/>
<path d="M21.125 39.5461H22.75" stroke="#00EAC7" stroke-width="0.8125" stroke-linejoin="bevel"/>
<path d="M24.375 33.8586H39.8125" stroke="#00EAC7" stroke-width="0.8125" stroke-linejoin="bevel"/>
<path d="M21.125 33.8586H22.75" stroke="#00EAC7" stroke-width="0.8125" stroke-linejoin="bevel"/>
<path d="M24.375 30.6086H42.25" stroke="#00EAC7" stroke-width="0.8125" stroke-linejoin="bevel"/>
<path d="M21.125 30.6086H22.75" stroke="#00EAC7" stroke-width="0.8125" stroke-linejoin="bevel"/>
<path d="M24.375 27.3586H45.5" stroke="#00EAC7" stroke-width="0.8125" stroke-linejoin="bevel"/>
<path d="M21.125 27.3586H22.75" stroke="#00EAC7" stroke-width="0.8125" stroke-linejoin="bevel"/>
<path d="M24.375 21.6711H33.3125" stroke="#00EAC7" stroke-width="0.8125" stroke-linejoin="bevel"/>
<path d="M21.125 21.6711H22.75" stroke="#00EAC7" stroke-width="0.8125" stroke-linejoin="bevel"/>
<path d="M24.375 18.4211H41.4375" stroke="#00EAC7" stroke-width="0.8125" stroke-linejoin="bevel"/>
<path d="M21.125 18.4211H22.75" stroke="#00EAC7" stroke-width="0.8125" stroke-linejoin="bevel"/>
<path d="M52.8125 69.6086C59.3191 69.6086 64.5938 64.334 64.5938 57.8274C64.5938 51.3208 59.3191 46.0461 52.8125 46.0461C46.3059 46.0461 41.0312 51.3208 41.0312 57.8274C41.0312 64.334 46.3059 69.6086 52.8125 69.6086Z" fill="#111B24" stroke="white" stroke-width="0.8125" stroke-linejoin="bevel"/>
<mask id="mask0_0_1189" style="mask-type:luminance" maskUnits="userSpaceOnUse" x="46" y="50" width="14" height="14">
<path d="M59.8203 50.5149H46.0078V63.5149H59.8203V50.5149Z" fill="white"/>
<path d="M56.7006 57.8616H58.5934C58.6159 57.8616 58.638 57.8572 58.6588 57.8487C58.6795 57.8401 58.6983 57.8276 58.7142 57.8117C58.73 57.7959 58.7426 57.777 58.7511 57.7563C58.7598 57.7356 58.7641 57.7134 58.7641 57.691V56.326C58.7641 56.2807 58.7461 56.2373 58.7141 56.2053C58.6821 56.1733 58.6387 56.1553 58.5934 56.1553H55.9412L53.8516 51.4623C53.8338 51.4225 53.8049 51.3885 53.7683 51.3645C53.7318 51.3406 53.689 51.3277 53.6453 51.3274H51.9391C51.8951 51.3274 51.852 51.3401 51.8152 51.3641C51.7783 51.3881 51.7492 51.4222 51.7313 51.4623L49.6432 56.1553H46.9909C46.9457 56.1553 46.9023 56.1733 46.8703 56.2053C46.8383 56.2373 46.8203 56.2807 46.8203 56.326V57.691C46.8202 57.7134 46.8246 57.7356 46.8332 57.7563C46.8418 57.777 46.8544 57.7959 46.8702 57.8117C46.886 57.8276 46.9049 57.8401 46.9256 57.8487C46.9463 57.8572 46.9685 57.8616 46.9909 57.8616H48.8837L46.8362 62.4624C46.8247 62.4883 46.8198 62.5167 46.822 62.5449C46.8242 62.5733 46.8334 62.6005 46.8488 62.6244C46.8642 62.6482 46.8853 62.6678 46.9102 62.6814C46.935 62.6951 46.963 62.7022 46.9913 62.7024H48.5145C48.5584 62.7024 48.6014 62.6896 48.6383 62.6657C48.6752 62.6417 48.7043 62.6076 48.7222 62.5674L52.7922 53.4261L56.8622 62.5674C56.88 62.6076 56.9092 62.6417 56.9461 62.6657C56.983 62.6896 57.026 62.7024 57.0699 62.7024H58.593C58.6216 62.7025 58.6496 62.6954 58.6746 62.6818C58.6996 62.6683 58.7208 62.6487 58.7364 62.6249C58.752 62.601 58.7612 62.5736 58.7635 62.5453C58.7658 62.5169 58.7608 62.4884 58.7493 62.4624L56.7006 57.8616Z" fill="white"/>
</mask>
<g mask="url(#mask0_0_1189)">
<path d="M56.7006 57.8616V57.0491L55.9584 58.192L56.7006 57.8616ZM58.5934 57.8616L58.5952 57.0491H58.5934V57.8616ZM58.7641 57.691H57.9516V57.6928L58.7641 57.691ZM55.9412 56.1553L55.1989 56.4858L55.9412 56.9678V56.1553ZM53.6453 51.3274L53.6509 50.5149H53.6453V51.3274ZM49.6432 56.1553V56.9678L50.3856 56.4856L49.6432 56.1553ZM46.8203 57.691L47.6328 57.6928V57.691H46.8203ZM46.9909 57.8616V57.0491H46.9892L46.9909 57.8616ZM48.8837 57.8616L49.626 58.192L48.8837 57.0491V57.8616ZM46.9913 62.7024L46.9875 63.5149H46.9913V62.7024ZM52.7922 53.4261L53.5344 53.0956H52.05L52.7922 53.4261ZM58.593 62.7024L58.5947 61.8899H58.593V62.7024ZM56.7006 58.6741H58.5934V57.0491H56.7006V58.6741ZM58.5917 58.6741C58.7211 58.6743 58.8493 58.6491 58.9689 58.5997L58.3487 57.0977C58.4269 57.0654 58.5106 57.0489 58.5952 57.0491L58.5917 58.6741ZM58.9689 58.5997C59.0885 58.5503 59.1972 58.4777 59.2887 58.3862L58.1397 57.2372C58.1995 57.1774 58.2706 57.1299 58.3487 57.0977L58.9689 58.5997ZM59.2887 58.3862C59.3803 58.2947 59.4527 58.186 59.5021 58.0664L58.0002 57.4462C58.0325 57.368 58.0799 57.297 58.1397 57.2372L59.2887 58.3862ZM59.5021 58.0664C59.5515 57.9467 59.5769 57.8185 59.5766 57.6891L57.9516 57.6928C57.9514 57.6082 57.9679 57.5244 58.0002 57.4462L59.5021 58.0664ZM59.5766 57.691V56.326H57.9516V57.691H59.5766ZM59.5766 56.326C59.5766 56.0652 59.473 55.8152 59.2886 55.6308L58.1396 56.7798C58.0192 56.6594 57.9516 56.4962 57.9516 56.326H59.5766ZM59.2886 55.6308C59.1043 55.4464 58.8542 55.3428 58.5934 55.3428V56.9678C58.4232 56.9678 58.2599 56.9002 58.1396 56.7798L59.2886 55.6308ZM58.5934 55.3428H55.9412V56.9678H58.5934V55.3428ZM56.6834 55.8248L54.5938 51.1319L53.1093 51.7928L55.1989 56.4858L56.6834 55.8248ZM54.5938 51.1319C54.5125 50.9493 54.3805 50.7941 54.2133 50.6846L53.3234 52.0444C53.2293 51.9828 53.155 51.8955 53.1093 51.7928L54.5938 51.1319ZM54.2133 50.6846C54.046 50.5753 53.8508 50.5163 53.6509 50.5149L53.6397 52.1399C53.5273 52.1391 53.4175 52.1059 53.3234 52.0444L54.2133 50.6846ZM53.6453 50.5149H51.9391V52.1399H53.6453V50.5149ZM51.9391 50.5149C51.738 50.515 51.5411 50.5732 51.3726 50.6828L52.2578 52.0455C52.163 52.1071 52.0522 52.1399 51.9391 52.1399V50.5149ZM51.3726 50.6828C51.204 50.7923 51.0707 50.9483 50.989 51.132L52.4735 51.7928C52.4275 51.8961 52.3526 51.9839 52.2578 52.0455L51.3726 50.6828ZM50.989 51.132L48.9009 55.8251L50.3856 56.4856L52.4735 51.7928L50.989 51.132ZM49.6432 55.3428H46.9909V56.9678H49.6432V55.3428ZM46.9909 55.3428C46.7302 55.3428 46.4801 55.4464 46.2958 55.6308L47.4448 56.7798C47.3245 56.9002 47.1612 56.9678 46.9909 56.9678V55.3428ZM46.2958 55.6308C46.1114 55.8152 46.0078 56.0652 46.0078 56.326H47.6328C47.6328 56.4962 47.5652 56.6594 47.4448 56.7798L46.2958 55.6308ZM46.0078 56.326V57.691H47.6328V56.326H46.0078ZM46.0078 57.6891C46.0075 57.8185 46.0328 57.9467 46.0822 58.0664L47.5842 57.4462C47.6165 57.5244 47.633 57.6082 47.6328 57.6928L46.0078 57.6891ZM46.0822 58.0664C46.1316 58.186 46.2041 58.2947 46.2957 58.3862L47.4447 57.2372C47.5045 57.297 47.5519 57.368 47.5842 57.4462L46.0822 58.0664ZM46.2957 58.3862C46.3872 58.4777 46.4959 58.5503 46.6155 58.5997L47.2357 57.0977C47.3138 57.1299 47.3849 57.1774 47.4447 57.2372L46.2957 58.3862ZM46.6155 58.5997C46.7351 58.6491 46.8633 58.6743 46.9927 58.6741L46.9892 57.0491C47.0737 57.0489 47.1575 57.0654 47.2357 57.0977L46.6155 58.5997ZM46.9909 58.6741H48.8837V57.0491H46.9909V58.6741ZM48.1414 57.5312L46.0939 62.132L47.5785 62.7928L49.626 58.192L48.1414 57.5312ZM46.0939 62.132C46.0275 62.2814 45.9993 62.4448 46.012 62.6078L47.6321 62.4821C47.6403 62.5886 47.6219 62.6953 47.5785 62.7928L46.0939 62.132ZM46.012 62.6078C46.0246 62.7708 46.0777 62.928 46.1663 63.0653L47.5313 62.1834C47.5892 62.2731 47.6238 62.3757 47.6321 62.4821L46.012 62.6078ZM46.1663 63.0653C46.2551 63.2026 46.3766 63.3156 46.52 63.3941L47.3003 61.9688C47.394 62.02 47.4733 62.0938 47.5313 62.1834L46.1663 63.0653ZM46.52 63.3941C46.6633 63.4726 46.8241 63.5141 46.9875 63.5149L46.9951 61.8899C47.1018 61.8904 47.2067 61.9175 47.3003 61.9688L46.52 63.3941ZM46.9913 63.5149H48.5145V61.8899H46.9913V63.5149ZM48.5145 63.5149C48.7155 63.5148 48.9123 63.4566 49.0809 63.347L48.1957 61.9843C48.2905 61.9227 48.4014 61.8899 48.5145 61.8899V63.5149ZM49.0809 63.347C49.2495 63.2375 49.3828 63.0815 49.4645 62.8978L47.98 62.2369C48.026 62.1336 48.1009 62.0459 48.1957 61.9843L49.0809 63.347ZM49.4645 62.8978L53.5344 53.7565L52.05 53.0956L47.98 62.2369L49.4645 62.8978ZM52.05 53.7565L56.1199 62.8979L57.6045 62.237L53.5344 53.0956L52.05 53.7565ZM56.1199 62.8979C56.2017 63.0816 56.3349 63.2375 56.5034 63.347L57.3887 61.9843C57.4835 62.0459 57.5585 62.1336 57.6045 62.237L56.1199 62.8979ZM56.5034 63.347C56.672 63.4566 56.8687 63.5148 57.0698 63.5149L57.0702 61.8899C57.1833 61.8899 57.2938 61.9227 57.3887 61.9843L56.5034 63.347ZM57.0698 63.5149H58.593V61.8899H57.0702L57.0698 63.5149ZM58.5915 63.5149C58.7555 63.5152 58.917 63.4745 59.0612 63.3964L58.2879 61.9672C58.3822 61.9163 58.4876 61.8896 58.5947 61.8899L58.5915 63.5149ZM59.0612 63.3964C59.2054 63.3184 59.3279 63.2056 59.4174 63.0681L58.0554 62.1817C58.1138 62.0919 58.1938 62.0182 58.2879 61.9672L59.0612 63.3964ZM59.4174 63.0681C59.5069 62.9306 59.5605 62.7729 59.5735 62.6094L57.9535 62.4811C57.962 62.3743 57.997 62.2714 58.0554 62.1817L59.4174 63.0681ZM59.5735 62.6094C59.5864 62.446 59.5583 62.2818 59.4916 62.1319L58.007 62.7928C57.9634 62.695 57.9451 62.5878 57.9535 62.4811L59.5735 62.6094ZM59.4916 62.1319L57.4429 57.5311L55.9584 58.192L58.007 62.7928L59.4916 62.1319Z" fill="white"/>
</g>
<path d="M68.0168 13.5461V16.7961H63.1418V13.5461" stroke="#1B2B38" stroke-width="0.8125" stroke-linecap="square"/>
<path d="M65.5793 14.3586V11.1086H60.7043V14.3586" stroke="#1B2B38" stroke-width="0.8125" stroke-linecap="square"/>
<path fill-rule="evenodd" clip-rule="evenodd" d="M17.474 68.3952C18.2398 67.6294 18.2398 66.3879 17.474 65.6221C17.0965 65.2446 16.6034 65.0532 16.1086 65.0479C15.7778 65.0443 15.4356 64.9702 15.2016 64.7362C14.9677 64.5023 14.8935 64.1602 14.89 63.8293C14.8848 63.3346 14.6933 62.8415 14.3158 62.4639C13.5501 61.6982 12.3086 61.6982 11.5428 62.4639C10.777 63.2297 10.777 64.4712 11.5428 65.237C11.9666 65.6609 12.5362 65.8501 13.0902 65.8048C13.3809 65.781 13.6859 65.8395 13.8922 66.0458C14.0984 66.252 14.1571 66.5571 14.1333 66.8478C14.0879 67.4017 14.2772 67.9714 14.701 68.3952C15.4667 69.1609 16.7083 69.1609 17.474 68.3952Z" fill="#1B2B38"/>
</svg>
