<svg width="79" height="79" viewBox="0 0 79 79" fill="none" xmlns="http://www.w3.org/2000/svg">
<path d="M39.405 65.5453C53.9883 65.5453 65.8104 53.7232 65.8104 39.1398C65.8104 24.5565 53.9883 12.7344 39.405 12.7344C24.8217 12.7344 12.9996 24.5565 12.9996 39.1398C12.9996 53.7232 24.8217 65.5453 39.405 65.5453Z" stroke="#415566" stroke-width="0.812474" stroke-dasharray="1.62 1.62"/>
<path d="M39.405 58.233C49.9499 58.233 58.4981 49.6847 58.4981 39.1399C58.4981 28.595 49.9499 20.0468 39.405 20.0468C28.8602 20.0468 20.3119 28.595 20.3119 39.1399C20.3119 49.6847 28.8602 58.233 39.405 58.233Z" stroke="#1B2B38" stroke-width="0.812474"/>
<path d="M69.0603 48.0771C69.0603 51.6027 67.5049 55.0375 64.6181 57.8867C61.7313 60.736 57.6619 62.8529 52.996 63.9326L45.9048 48.0771V42.3898H69.0603V48.0771Z" fill="#111B24"/>
<path d="M69.0603 48.0771C69.0603 51.6027 67.5049 55.0375 64.6181 57.8867C61.7313 60.736 57.6619 62.8529 52.996 63.9326L45.9048 48.0771V42.3898H69.0603V48.0771Z" fill="#00EAC7" fill-opacity="0.06"/>
<path d="M69.0603 48.0771C69.0603 51.6027 67.5049 55.0375 64.6181 57.8867C61.7313 60.736 57.6619 62.8529 52.996 63.9326L45.9048 48.0771V42.3898H69.0603V48.0771Z" stroke="#00EAC7" stroke-width="1.62495" stroke-linejoin="bevel"/>
<path d="M46.5605 59.0428C41.9099 60.1297 36.9002 60.1297 32.2495 59.0428C27.5989 57.9559 23.5461 55.8378 20.6718 52.9922C17.7976 50.1466 16.2495 46.7196 16.2495 43.2022C16.2495 39.685 16.2495 36.6622 16.2495 36.6622C20.7662 32.1905 39.405 37.5149 39.405 37.5149L24.7805 24.9216V21.2654C28.8428 22.4842 60.4527 31.772 62.5605 33.8588C62.5605 33.8588 62.5605 36.0287 62.5605 39.5461H40.2175L46.5605 53.3582V59.0428Z" fill="#111B24" stroke="white" stroke-width="0.812474" stroke-linejoin="bevel"/>
<path d="M24.658 21.4239C28.0418 19.4133 32.1504 18.1359 36.5049 17.7404C40.8593 17.3451 45.2803 17.848 49.2527 19.1906C53.225 20.5332 56.585 22.6603 58.9412 25.3238C61.2973 27.9874 62.5525 31.0778 62.5605 34.2348L39.405 34.265L24.658 21.4239Z" fill="#111B24" stroke="white" stroke-width="0.812474" stroke-linejoin="bevel"/>
<path d="M53.2171 57.8267V63.514" stroke="#00EAC7" stroke-width="0.812474" stroke-linejoin="bevel"/>
<path d="M68.6541 42.3898C68.6541 45.8224 67.126 49.1665 64.2898 51.9405C61.4537 54.7146 57.8012 56.7756 53.2171 57.8268L45.9048 42.3898" stroke="#00EAC7" stroke-width="0.812474" stroke-linejoin="bevel"/>
<path d="M46.7173 42.3898H45.9048V48.0771" stroke="#00EAC7" stroke-width="1.62495" stroke-linejoin="bevel"/>
<path d="M46.5605 53.3555C41.4513 54.5495 35.924 54.4287 30.9251 53.0136C25.9263 51.5985 21.767 48.9772 19.1597 45.5988C16.5524 42.2204 15.6592 38.2949 16.6333 34.4949C17.6074 30.6949 20.388 27.2566 24.4989 24.7692L39.405 37.5149L46.5605 53.3555Z" fill="#111B24" stroke="white" stroke-width="0.812474" stroke-linejoin="bevel"/>
<path d="M24.3742 55.7956V50.1083L39.405 37.5149V34.265" stroke="white" stroke-width="0.812474" stroke-linejoin="bevel"/>
<path d="M60.5293 16.7968H63.7792V13.5469" stroke="#1B2B38" stroke-width="0.812474" stroke-linecap="square"/>
<path d="M68.6541 18.4218H65.4042V21.6716" stroke="#1B2B38" stroke-width="0.812474" stroke-linecap="square"/>
<path d="M12.9996 63.5141L10.6814 65.1983L11.5669 67.9235H14.4323L15.3177 65.1983L12.9996 63.5141Z" fill="#1B2B38"/>
</svg>
