<svg width="79" height="79" viewBox="0 0 79 79" fill="none" xmlns="http://www.w3.org/2000/svg">
<path d="M39.405 65.5453C53.9883 65.5453 65.8104 53.7232 65.8104 39.1398C65.8104 24.5565 53.9883 12.7344 39.405 12.7344C24.8217 12.7344 12.9996 24.5565 12.9996 39.1398C12.9996 53.7232 24.8217 65.5453 39.405 65.5453Z" stroke="#415566" stroke-width="0.812474" stroke-dasharray="1.62 1.62"/>
<path d="M39.405 58.233C49.9499 58.233 58.4981 49.6847 58.4981 39.1399C58.4981 28.595 49.9499 20.0468 39.405 20.0468C28.8602 20.0468 20.3119 28.595 20.3119 39.1399C20.3119 49.6847 28.8602 58.233 39.405 58.233Z" stroke="#1B2B38" stroke-width="0.812474"/>
<path d="M49.9672 12.3282H25.5929L17.4682 20.453V57.8268H49.9672V12.3282Z" fill="#111B24"/>
<path d="M49.9672 12.3282H25.5929L17.4682 20.453V57.8268H49.9672V12.3282Z" fill="#00EAC7" fill-opacity="0.06"/>
<path d="M49.9672 12.3282H25.5929L17.4682 20.453V57.8268H49.9672V12.3282Z" stroke="#00EAC7" stroke-width="1.62495" stroke-linejoin="bevel"/>
<path d="M53.2171 15.5781H28.8428L20.7181 23.7029V61.0767H53.2171V15.5781Z" fill="#111B24"/>
<path d="M53.2171 15.5781H28.8428L20.7181 23.7029V61.0767H53.2171V15.5781Z" fill="#00EAC7" fill-opacity="0.06"/>
<path d="M53.2171 15.5781H28.8428L20.7181 23.7029V61.0767H53.2171V15.5781Z" stroke="#00EAC7" stroke-width="1.62495" stroke-linejoin="bevel"/>
<path d="M28.8428 15.5781V23.7029H20.7181" stroke="#00EAC7" stroke-width="1.62495" stroke-linejoin="bevel"/>
<path d="M36.1551 46.4521L31.9766 51.327L29.6553 48.4021" stroke="#00EAC7" stroke-width="0.812474" stroke-linejoin="bevel"/>
<path d="M44.2798 33.8588H26.4054" stroke="#00EAC7" stroke-width="0.812474" stroke-linejoin="bevel"/>
<path d="M44.2798 37.9211H26.4054" stroke="#00EAC7" stroke-width="0.812474" stroke-linejoin="bevel"/>
<path d="M47.5297 29.7964H26.4054" stroke="#00EAC7" stroke-width="0.812474" stroke-linejoin="bevel"/>
<path d="M41.4362 65.5453L44.6861 64.7328L44.8154 64.0861C45.224 62.043 46.886 60.4854 48.9513 60.2101L51.5921 59.8579L48.8128 45.6141C48.5186 44.1063 48.9936 42.5509 50.0799 41.4646C51.8324 39.712 54.6852 39.6826 56.5064 41.3637C57.7291 42.4923 58.2789 44.2011 57.9221 45.8263L54.842 59.8579L57.4828 60.2101C59.5481 60.4854 61.2101 62.043 61.6187 64.0861L61.748 64.7328L64.9979 65.5453V69.6076H41.4362V65.5453Z" fill="#111B24" stroke="white" stroke-width="0.812474" stroke-linejoin="bevel"/>
<path d="M44.6861 64.7328H61.748" stroke="white" stroke-width="0.812474" stroke-linejoin="bevel"/>
<path d="M68.2478 13.547V10.2971H64.9979" stroke="#1B2B38" stroke-width="0.812474" stroke-linecap="square"/>
<path d="M66.6229 15.1719V11.922H63.373" stroke="#1B2B38" stroke-width="0.812474" stroke-linecap="square"/>
<path d="M12.5934 63.5141L15.0308 65.9515L12.5934 68.3889L10.1559 65.9515L12.5934 63.5141Z" fill="#1B2B38"/>
<path d="M32.9052 54.9831C36.2706 54.9831 38.9988 52.255 38.9988 48.8896C38.9988 45.5242 36.2706 42.796 32.9052 42.796C29.5398 42.796 26.8116 45.5242 26.8116 48.8896C26.8116 52.255 29.5398 54.9831 32.9052 54.9831Z" stroke="#00EAC7" stroke-width="0.812474" stroke-linejoin="bevel"/>
</svg>
