<svg width="113" height="25" viewBox="0 0 113 25" fill="none" xmlns="http://www.w3.org/2000/svg">
<g clip-path="url(#clip0_0_404)">
<path d="M12.1021 0.716064C5.95704 0.716064 0.969971 5.75406 0.969971 11.911C0.969971 18.0622 5.95704 23.0543 12.1021 23.0543C18.2528 23.0543 23.2858 18.0622 23.2858 11.911C23.2858 5.75406 18.2528 0.716064 12.1021 0.716064ZM11.2019 8.07806H10.4281V15.526H11.2019V15.9104H8.62243V15.526H9.48226V8.4625L7.37277 16.0424H7.07471L4.87923 8.20424H4.83913V15.526H5.73909V15.9104H3.80728V15.526H4.49517V8.07806H3.80728V7.68777H5.69895L7.50464 14.2349L9.35043 7.68777H11.2019V8.07806ZM18.8547 16.0424C18.2987 16.0424 17.353 15.8702 16.8371 15.5261V15.9104H14.2117V15.526H15.0715L14.5156 13.0701H12.578L11.9302 15.526H12.8359V15.9104L11.2019 15.9104V15.526H11.5461L13.6556 7.56151H14.2977L16.1492 15.526L16.8371 15.5261L16.8369 13.4143H17.0949C17.221 14.8776 17.8229 15.7382 18.9005 15.7382C19.6285 15.7382 20.2763 15.1817 20.2304 14.1029C20.1444 11.865 16.877 12.6856 16.791 9.83948C16.705 8.2501 17.7827 7.56151 18.7687 7.56151C19.2846 7.56151 20.1044 7.73364 20.5744 8.03207V9.83948H20.2763C20.1444 8.54846 19.5024 7.81972 18.6827 7.81972C18.0808 7.81972 17.4388 8.46241 17.4789 9.36908C17.5248 11.4347 20.8324 10.574 20.9183 13.6725C21.0043 15.3939 20.0584 16.0424 18.8547 16.0424Z" fill="white"/>
<path d="M12.664 12.6855H14.4295L13.6097 9.15088L12.664 12.6855Z" fill="white"/>
<path fill-rule="evenodd" clip-rule="evenodd" d="M28.5345 14.8914H28.0186V15.1037H29.3944V14.8914H28.7524V10.4157L30.3402 15.1496H30.472L32.0197 10.4157H32.0599V14.8914H31.372V15.1037H33.2637V14.8914H32.7077V10.3296H33.2637V10.1575H31.9338L30.8561 13.2962L30.644 14.0708L30.4262 13.3421L29.3543 10.1575H28.0186V10.3296H28.5345V14.8914Z" fill="white"/>
<path fill-rule="evenodd" clip-rule="evenodd" d="M33.5216 13.3822C33.5216 14.0707 33.8656 15.1495 34.8974 15.1495C35.975 15.1495 36.2731 14.0707 36.2731 13.3822C36.2731 12.6937 35.975 11.6206 34.8974 11.6206C33.8656 11.6206 33.5216 12.6937 33.5216 13.3822ZM34.2095 13.3822C34.2095 12.6535 34.2095 11.7928 34.8974 11.7928C35.5853 11.7928 35.6311 12.6535 35.6311 13.3822C35.6311 14.1167 35.5853 14.9774 34.8974 14.9774C34.2095 14.9774 34.2095 14.1167 34.2095 13.3822Z" fill="white"/>
<path fill-rule="evenodd" clip-rule="evenodd" d="M36.5309 14.8913V15.1036H38.0786V14.8913H37.6086V13.124C37.6086 12.4813 37.9067 11.8789 38.4226 11.8789C38.8525 11.8789 38.8983 12.2231 38.8983 12.6076V14.8913H38.4685V15.1036H39.9761V14.8913H39.5003V12.5674C39.5003 11.8789 39.2423 11.6206 38.6404 11.6206C38.1646 11.6206 37.8207 11.8789 37.6487 12.3494H37.6086V11.7066H36.5309V11.8789H37.0068V14.8913H36.5309Z" fill="white"/>
<path fill-rule="evenodd" clip-rule="evenodd" d="M42.8535 13.1699C42.8535 12.2633 42.3838 11.6206 41.5639 11.6206C40.7499 11.6206 40.234 12.4355 40.234 13.3822C40.234 14.3749 40.5779 15.1495 41.478 15.1495C42.1659 15.1495 42.5097 14.9315 42.7676 14.1167L42.5955 14.0707C42.4239 14.547 42.1659 14.9315 41.6958 14.9315C40.9218 14.9315 40.876 14.2888 40.876 13.2961V13.1699H42.8535ZM40.8761 12.9978C40.8761 12.5674 41.0079 11.7928 41.5238 11.7928C42.1255 11.7928 42.1659 12.4813 42.1659 12.9978H40.8761Z" fill="white"/>
<path fill-rule="evenodd" clip-rule="evenodd" d="M43.0256 11.8789H43.5014V14.2889C43.5014 14.7192 43.5414 15.1037 44.1435 15.1037C44.6193 15.1037 44.8315 14.8914 44.9631 14.5012L44.791 14.461C44.7051 14.6733 44.6193 14.8914 44.4014 14.8914C44.1435 14.8914 44.103 14.6733 44.103 14.2889V11.8789H44.7452V11.7068H44.103V10.76H43.5014V11.7068H43.0256V11.8789Z" fill="white"/>
<path fill-rule="evenodd" clip-rule="evenodd" d="M46.7232 14.6331C46.8548 15.0634 47.067 15.1036 47.3707 15.1036H47.8407V14.8913C47.497 14.8913 47.3707 14.9774 47.3707 14.461V12.6076C47.3707 12.051 47.1528 11.6206 46.2531 11.6206C45.7773 11.6206 45.1352 11.7469 45.1352 12.4355C45.1352 12.6535 45.2615 12.6937 45.3931 12.6937C45.5652 12.6937 45.6911 12.5674 45.6911 12.3092C45.6911 11.8789 45.949 11.7928 46.2531 11.7928C46.6369 11.7928 46.769 12.0912 46.769 12.5674V12.8657C46.0352 13.124 44.9631 13.124 44.9631 14.1568C44.9631 14.8052 45.1752 15.1495 45.7773 15.1495C46.1669 15.1495 46.511 15.0634 46.7232 14.6331ZM46.769 13.0379V13.8584C46.769 14.329 46.5511 14.9315 46.0352 14.9315C45.7369 14.9315 45.651 14.5872 45.651 14.1568C45.651 13.4683 45.9089 13.342 46.2531 13.2101L46.769 13.0379Z" fill="white"/>
<path fill-rule="evenodd" clip-rule="evenodd" d="M48.4028 14.8913H47.8869V15.1036H49.4746V14.8913H49.0045V13.342C49.0045 12.6076 49.3025 11.8789 49.6466 11.8789C49.7325 11.8789 49.7783 11.9649 49.7783 12.051V12.3952C49.7783 12.6076 49.9046 12.6535 50.0767 12.6535C50.2945 12.6535 50.3804 12.4813 50.3804 12.2231C50.3804 11.8329 50.1625 11.6206 49.8183 11.6206C49.3487 11.6206 49.1308 12.051 49.0045 12.4355V11.7066H47.8869V11.8789H48.4028V14.8913Z" fill="white"/>
<path fill-rule="evenodd" clip-rule="evenodd" d="M51.67 15.4939C51.4979 16.1366 51.2805 16.3948 51.1084 16.3948C50.9363 16.3948 50.8962 16.2226 50.8962 16.0504C50.8962 15.8783 50.8504 15.7062 50.6383 15.7062C50.4662 15.7062 50.3804 15.8382 50.3804 16.0964C50.3804 16.3546 50.5925 16.653 50.9363 16.653C51.7101 16.653 51.7963 15.5799 51.968 15.1037L53.0459 11.8331H53.4755V11.7068H52.2721V11.8331H52.828L52.2259 13.7265C52.1401 13.9848 52.1 14.243 52.1 14.243H52.0542C52.0542 14.243 52.0542 13.9848 51.968 13.7265L51.3663 11.8331H51.9279V11.7068H50.2483V11.8331H50.6784L51.7963 15.1037L51.67 15.4939Z" fill="white"/>
<path fill-rule="evenodd" clip-rule="evenodd" d="M54.6793 14.8913H54.2092V15.1036H55.5393V14.8913H54.8972L55.3672 13.342H56.4852L56.9148 14.8913H56.3131V15.1036H58.2048V14.8913H57.6485L56.2273 10.0713H56.0552L54.6793 14.8913ZM56.3989 13.1239H55.3672L55.7572 11.8788L55.8831 11.2763H55.9289L56.0552 11.8788L56.3989 13.1239Z" fill="white"/>
<path fill-rule="evenodd" clip-rule="evenodd" d="M60.1419 15.1035H61.2603V14.8912H60.744V11.7065H59.6265V11.8787H60.1419V13.6862C60.1419 14.3288 59.884 14.9313 59.3228 14.9313C58.9385 14.9313 58.8523 14.5468 58.8523 14.1567V11.7065H57.8206V11.8787H58.2907V14.2026C58.2907 14.8912 58.5486 15.1493 59.1507 15.1493C59.6265 15.1493 59.9698 14.8912 60.1419 14.4149V15.1035Z" fill="white"/>
<path fill-rule="evenodd" clip-rule="evenodd" d="M61.3461 11.8789H61.8162V14.2889C61.8162 14.7193 61.862 15.1037 62.5038 15.1037C62.9338 15.1037 63.1516 14.8914 63.2779 14.5012L63.1516 14.4611C63.02 14.6734 62.9338 14.8914 62.7216 14.8914C62.4637 14.8914 62.4179 14.6734 62.4179 14.2889V11.8789H63.0658V11.7068H62.4179V10.76H61.8162V11.7068H61.3461V11.8789Z" fill="white"/>
<path fill-rule="evenodd" clip-rule="evenodd" d="M63.2379 14.8914V15.1037H64.8255V14.8914H64.3554V13.124C64.3554 12.4814 64.6134 11.8789 65.1697 11.8789C65.5997 11.8789 65.6455 12.2232 65.6455 12.6076V14.8914H65.1697V15.1037H66.7172V14.8914H66.2472V12.5675C66.2472 11.8789 65.9431 11.6207 65.3875 11.6207C64.9118 11.6207 64.5275 11.8789 64.3554 12.3494V10.1575H63.2379V10.3296H63.7537V14.8914H63.2379Z" fill="white"/>
<path fill-rule="evenodd" clip-rule="evenodd" d="M66.9351 13.3822C66.9351 14.0707 67.2793 15.1495 68.3106 15.1495C69.3427 15.1495 69.6869 14.0707 69.6869 13.3822C69.6869 12.6937 69.3427 11.6206 68.3106 11.6206C67.2793 11.6206 66.9351 12.6937 66.9351 13.3822ZM67.6231 13.3822C67.6231 12.6535 67.6231 11.7928 68.3106 11.7928C68.9989 11.7928 68.9989 12.6535 68.9989 13.3822C68.9989 14.1167 68.9989 14.9774 68.3106 14.9774C67.6231 14.9774 67.6231 14.1167 67.6231 13.3822Z" fill="white"/>
<path fill-rule="evenodd" clip-rule="evenodd" d="M70.4202 14.8913H69.9043V15.1036H71.5377V14.8913H71.0223V13.342C71.0223 12.6076 71.366 11.8789 71.664 11.8789C71.7499 11.8789 71.8361 11.9649 71.8361 12.051V12.3952C71.8361 12.6076 71.9677 12.6535 72.094 12.6535C72.3119 12.6535 72.3982 12.4813 72.3982 12.2231C72.3982 11.8329 72.1803 11.6206 71.8361 11.6206C71.4061 11.6206 71.1486 12.051 71.0223 12.4355V11.7066H69.9043V11.8789H70.4202V14.8913Z" fill="white"/>
<path fill-rule="evenodd" clip-rule="evenodd" d="M72.9541 14.8912H72.4382V15.1036H74.0716V14.8912H73.5558V11.7066H72.4382V11.8788H72.9541V14.8912ZM72.914 10.6279C72.914 10.8459 73.0861 11.0181 73.2582 11.0181C73.4695 11.0181 73.6416 10.8459 73.6416 10.6279C73.6416 10.3697 73.4695 10.1975 73.2582 10.1975C73.0403 10.1975 72.914 10.3697 72.914 10.6279Z" fill="white"/>
<path fill-rule="evenodd" clip-rule="evenodd" d="M74.1579 11.8789H74.6337V14.2889C74.6337 14.7193 74.6737 15.1037 75.3212 15.1037C75.7512 15.1037 75.9634 14.8914 76.0954 14.5012L75.9233 14.4611C75.8371 14.6734 75.7512 14.8914 75.5334 14.8914C75.2754 14.8914 75.235 14.6734 75.235 14.2889V11.8789H75.8775V11.7068H75.235V10.76H74.6337V11.7068H74.1579V11.8789Z" fill="white"/>
<path fill-rule="evenodd" clip-rule="evenodd" d="M77.0813 15.4937C76.955 16.1363 76.6975 16.3946 76.5254 16.3946C76.3533 16.3946 76.3533 16.2224 76.3533 16.0502C76.3533 15.8781 76.3076 15.7059 76.0954 15.7059C75.9233 15.7059 75.7917 15.838 75.7917 16.0961C75.7917 16.3543 76.0096 16.6527 76.3533 16.6527C77.1271 16.6527 77.213 15.5797 77.385 15.1035L78.4572 11.8328H78.8868V11.7065H77.7292V11.8328H78.2851L77.683 13.7263C77.5972 13.9845 77.5113 14.2428 77.5113 14.2428C77.5113 14.2428 77.4709 13.9845 77.385 13.7263L76.7829 11.8328H77.3393V11.7065H75.6654V11.8328H76.1355L77.213 15.1035L77.0813 15.4937Z" fill="white"/>
<path fill-rule="evenodd" clip-rule="evenodd" d="M80.1985 13.3879C80.1985 14.0764 80.5427 15.1551 81.574 15.1551C82.6061 15.1551 82.956 14.0764 82.956 13.3879C82.956 12.6993 82.6061 11.6262 81.574 11.6262C80.5427 11.6262 80.1985 12.6993 80.1985 13.3879ZM80.8869 13.3879C80.8869 12.6592 80.8865 11.7984 81.574 11.7984C82.2623 11.7984 82.2623 12.6592 82.2623 13.3879C82.2623 14.1223 82.2623 14.9831 81.574 14.9831C80.8865 14.9831 80.8869 14.1223 80.8869 13.3879Z" fill="white"/>
<path fill-rule="evenodd" clip-rule="evenodd" d="M83.684 11.8845V14.897H83.1686V15.1093H84.7619V14.897H84.2861V11.8845H84.8478V11.7124H84.2861V10.9378C84.2861 10.5074 84.3319 10.2435 84.6299 10.2435C84.8882 10.2435 84.9741 10.3754 84.9741 10.6796C84.9741 10.9378 85.0599 11.0239 85.2316 11.0239C85.4037 11.0239 85.4895 10.9378 85.4895 10.7197C85.4895 10.2033 84.9741 10.0713 84.6299 10.0713C84.1598 10.0713 83.684 10.2435 83.684 11.0239V11.7124H83.1686V11.8845H83.684Z" fill="white"/>
<path fill-rule="evenodd" clip-rule="evenodd" d="M86.7395 14.8511C87.1233 15.0691 87.725 15.1552 88.115 15.1552C88.9288 15.1552 89.5767 14.811 89.5767 13.7322C89.5767 11.8845 87.295 12.401 87.295 11.1501C87.295 10.5935 87.7712 10.2435 88.1554 10.2435C88.7167 10.2435 89.1467 10.6337 89.2325 11.4542H89.4046L89.3588 10.3296C89.0608 10.1574 88.5854 10.0713 88.2413 10.0713C87.5533 10.0713 86.8249 10.4615 86.8249 11.4083C86.8249 13.1297 89.1009 12.6592 89.1009 13.9903C89.1009 14.679 88.6312 14.9831 88.1554 14.9831C87.3812 14.9831 86.9512 14.4667 86.865 13.606H86.6937L86.7395 14.8511Z" fill="white"/>
<path fill-rule="evenodd" clip-rule="evenodd" d="M90.3909 14.897H89.8747V15.1094H91.4684V14.897H90.9922V11.7125H89.8747V11.8846H90.3909V14.897ZM90.3047 10.6337C90.3047 10.8518 90.4768 11.0239 90.6942 11.0239C90.8663 11.0239 91.0384 10.8518 91.0384 10.6337C91.0384 10.3755 90.8663 10.2034 90.6942 10.2034C90.4768 10.2034 90.3047 10.3296 90.3047 10.6337Z" fill="white"/>
<path fill-rule="evenodd" clip-rule="evenodd" d="M91.5543 14.8969V15.1093H93.1018V14.8969H92.6718V13.1296C92.6718 12.4869 92.9297 11.8845 93.4861 11.8845C93.876 11.8845 93.9623 12.2288 93.9623 12.6132V14.8969H93.4861V15.1093H95.0336V14.8969H94.5635V12.573C94.5635 11.8845 94.2602 11.6262 93.7039 11.6262C93.1881 11.6262 92.8439 11.8845 92.6718 12.355V11.7123H91.5543V11.8845H92.0705V14.8969H91.5543Z" fill="white"/>
<path fill-rule="evenodd" clip-rule="evenodd" d="M96.4553 11.6262C95.9799 11.6262 95.5098 12.0107 95.5098 12.6592C95.5098 12.9575 95.5499 13.1296 95.6819 13.3878C95.4236 13.5198 95.1656 13.7781 95.1656 14.1625C95.1656 14.5526 95.4236 14.8969 95.7678 14.9831C95.464 15.0232 95.2057 15.2412 95.2057 15.6257C95.2057 16.4462 96.0653 16.6184 96.5816 16.6184C97.1894 16.6184 97.9628 16.3143 97.9628 15.3675C97.9628 14.5929 97.5332 14.2944 96.9715 14.2944H95.9398C95.5957 14.2944 95.4236 14.2485 95.4236 13.9903C95.4236 13.7781 95.6819 13.56 95.8536 13.56C96.0253 13.692 96.2832 13.7781 96.5411 13.7781C97.0574 13.7781 97.5332 13.3476 97.5332 12.6592C97.5332 12.4411 97.4874 12.2689 97.3611 12.0566C97.3611 11.9706 97.4874 11.8845 97.5332 11.8845C97.7453 11.8845 97.5732 12.3148 97.8774 12.3148C98.0028 12.3148 98.0891 12.1828 98.0891 12.0107C98.0891 11.7525 97.8774 11.6262 97.7053 11.6262C97.4874 11.6262 97.3611 11.7525 97.2753 11.8845C97.0574 11.6664 96.7533 11.6262 96.4553 11.6262ZM96.0653 12.6132C96.0653 12.1828 96.1111 11.7984 96.5411 11.7984C96.9715 11.7984 96.9715 12.3148 96.9715 12.7452C96.9715 13.0895 96.9254 13.6058 96.4953 13.6058C96.0653 13.6058 96.0653 13.0034 96.0653 12.6132ZM96.8853 14.9831C97.4473 14.9831 97.7453 15.0691 97.7453 15.5396C97.7453 16.056 97.2753 16.4462 96.6274 16.4462C96.0253 16.4462 95.6357 16.2282 95.6357 15.6716C95.6357 15.0232 96.0653 14.9831 96.8853 14.9831Z" fill="white"/>
<path fill-rule="evenodd" clip-rule="evenodd" d="M100.026 14.6387C100.153 15.0691 100.37 15.1093 100.668 15.1093H101.145V14.8969C100.8 14.8969 100.668 14.9831 100.668 14.4666V12.6132C100.668 12.0566 100.456 11.6262 99.5508 11.6262C99.0807 11.6262 98.4329 11.7525 98.4329 12.4411C98.4329 12.6592 98.5649 12.6993 98.6908 12.6993C98.8629 12.6993 98.9949 12.573 98.9949 12.3148C98.9949 11.8845 99.2528 11.7984 99.5508 11.7984C99.9404 11.7984 100.067 12.0968 100.067 12.573V12.8714C99.3387 13.1296 98.2608 13.1296 98.2608 14.1625C98.2608 14.8109 98.4786 15.1551 99.0807 15.1551C99.465 15.1551 99.8092 15.0691 100.026 14.6387ZM100.067 13.0436V13.8641C100.067 14.3347 99.8549 14.9371 99.3387 14.9371C98.9949 14.9371 98.9487 14.5929 98.9487 14.1625C98.9487 13.4739 99.2071 13.3476 99.5508 13.2157L100.067 13.0436Z" fill="white"/>
<path fill-rule="evenodd" clip-rule="evenodd" d="M101.185 16.6184H102.818V16.4462H102.302V14.6789C102.434 15.0232 102.732 15.1551 103.076 15.1551C103.982 15.1551 104.366 14.3347 104.366 13.3878C104.366 12.1427 103.81 11.6262 103.162 11.6262C102.778 11.6262 102.52 11.7525 102.302 12.1828V11.7123H101.23V11.8845H101.701V16.4462H101.185V16.6184ZM102.302 13.0895C102.302 12.0566 102.732 11.8386 102.991 11.8386C103.552 11.8386 103.724 12.5271 103.724 13.3878C103.724 14.3805 103.466 14.9371 102.991 14.9371C102.388 14.9371 102.302 14.2485 102.302 13.6461V13.0895Z" fill="white"/>
<path fill-rule="evenodd" clip-rule="evenodd" d="M104.796 13.3879C104.796 14.0764 105.1 15.1551 106.171 15.1551C107.204 15.1551 107.547 14.0764 107.547 13.3879C107.547 12.6993 107.204 11.6262 106.171 11.6262C105.1 11.6262 104.796 12.6993 104.796 13.3879ZM105.484 13.3879C105.484 12.6592 105.484 11.7984 106.171 11.7984C106.859 11.7984 106.859 12.6592 106.859 13.3879C106.859 14.1223 106.859 14.9831 106.171 14.9831C105.484 14.9831 105.484 14.1223 105.484 13.3879Z" fill="white"/>
<path fill-rule="evenodd" clip-rule="evenodd" d="M108.281 14.8969H107.765V15.1093H109.353V14.8969H108.883V13.3476C108.883 12.6132 109.227 11.8845 109.525 11.8845C109.611 11.8845 109.657 11.9706 109.657 12.0566V12.4009C109.657 12.6132 109.783 12.6592 109.955 12.6592C110.173 12.6592 110.259 12.4869 110.259 12.2288C110.259 11.8386 110.041 11.6262 109.697 11.6262C109.267 11.6262 109.01 12.0566 108.883 12.4411V11.7123H107.765V11.8845H108.281V14.8969Z" fill="white"/>
<path fill-rule="evenodd" clip-rule="evenodd" d="M112.97 13.1755C112.97 12.2689 112.54 11.6262 111.72 11.6262C110.861 11.6262 110.345 12.4411 110.345 13.3879C110.345 14.3805 110.689 15.1551 111.635 15.1551C112.282 15.1551 112.627 14.9371 112.884 14.1223L112.712 14.0764C112.581 14.5527 112.322 14.9371 111.807 14.9371C111.032 14.9371 111.032 14.2944 111.032 13.3018V13.1755H112.97ZM111.032 13.0034C111.032 12.573 111.159 11.7984 111.635 11.7984C112.237 11.7984 112.282 12.4869 112.282 13.0034H111.032Z" fill="white"/>
</g>
<defs>
<clipPath id="clip0_0_404">
<rect width="112" height="24.5255" fill="white" transform="translate(0.969971 0.017334)"/>
</clipPath>
</defs>
</svg>
